# xmcd CD database file
#
# Track frame offsets:
#	150
#	34110
#	84097
#	113555
#	158475
#	169735
#	204170
#	231257
#	273625
#
# Disc length: 4086 seconds
#
# Revision: 0
# Processed by: cddbd v1.5.2PL0 Copyright (c) Steve Scherf et al.
# Submitted via: CDex 1.51
#
DISCID=630ff409
DTITLE=The Eddie Bert - Gabe Baltazar Quintet - Live at Capozzoli's
DYEAR=1999
DGENRE=Jazz
TTITLE0=Jumpin With Symphony Sid
TTITLE1=All The Things You Are
TTITLE2=Mood Indigo
TTITLE3=P Town
TTITLE4=He Ain't Got Rhythm
TTITLE5=If You Could See Me Now
TTITLE6=Just For You
TTITLE7=Body And Soul
TTITLE8=Pennies From Heaven
EXTD=YEAR: 1999
EXTT0=
EXTT1=
EXTT2=
EXTT3=
EXTT4=
EXTT5=
EXTT6=
EXTT7=
EXTT8=
PLAYORDER=
